/* XPM */
static char *_5090f04aa944d84f7300b06023bcfc2MdIrBH4YYc2foldp[] = {
/* columns rows colors chars-per-pixel */
"64 64 7 1 ",
"  c None",
". c black",
"X c #9C5A3C",
"o c #FFC20E",
"O c #2F3699",
"+ c #546D8E",
"@ c #B4B4B4",
/* pixels */
"                                                                ",
"                                                                ",
"                                                                ",
"                                                                ",
"                                                                ",
"                                                                ",
"                                                                ",
"                                                                ",
"                                                                ",
"                                                                ",
"                                                                ",
"                                                                ",
"                                                                ",
"                       ........O......                          ",
"                   .....@@@@@@@@@@@@@....                       ",
"               .....@@@@@@@@@@@@@@@@@@@@.....                   ",
"              ..@@@@@@@@@@@@@@@@@@@@@@@@@@@@...                 ",
"             ..@@@@@@@@@@@@@@@@@@@@@@@@@@@@@@@..                ",
"            ..@@@@@@@@@@@@@@@@@@@@@@@@@@@@@@@@@@.O              ",
"           .@@@@@@@@@@@@@@@@@@@@@@@@@@@@@@@@@@@@@@.             ",
"          .@@@@@@@@@@@@@@@@@@@@@@@@@@@@@@@@@@@@@@@@.            ",
"         .@@@@@@@@@.........................@@@@@@@@.           ",
"        ..@@@@@@@@.XXXXXXXXXXXXXXXXXXXXXXXXX.@@@@@@@@O          ",
"        .@@@@@@@@.XXXXXXXXXXXXXXXXXXXXXXXXXXX.@@@@@@@@O         ",
"       ..@@@@@@@.XXXXXXXXXXXXXXXXXXXXXXXXXXXXX.@@@@@@@O         ",
"       .@@@@@@@.XXXXXXXXXXXXXXXXXXXXXXXXXXXXXXX.@@@@@@@O        ",
"      ..@@@@@@.XXXXXXXXXXXXXXXXXXXXXXXXXXXXXXXXX.@@@@@@@O       ",
"      .@@@@@@.XXXXXXXXXXXXXXXXXXXXXXXXXXXXXXXXXXX.@@@@@@O       ",
"      .@@@@@.XXXXXXXXXXXXXXXXXXXXXXXXXXXXXXXXXXXXX.@@@@@O       ",
"      .@@@@..XXXXXXXXXXXXXXXXXXXXXXXXXXXXXXXXXXXXX.@@@@@O       ",
"      .@@@@.XXXXXXXXXXXXXXXXXXXXXXXXXXXXXXXXXXXXXXX.@@@@O       ",
"      .@@@..XXXXXXXXXXXXXXXXXXXXXXXXXXXXXXXXXXXXXXX.@@@@O       ",
"      .@@@.......XXXXXXXXXXXXXXXXXXXXXXXXXXXXXXXXXX..@@@O       ",
"      .@@@++++++.XXXXXXXXXXXXXXXXXXXXXXXXXXXXXXXXXXX.@@@O       ",
"      .@@@++++++.XXXXXXXXXXXXXXXXXXXXXXXXXXXXXXXXXXX.@@@O       ",
"      .@@@.......XXXXXXXXXXXXXXXXXXXXXXXXXXXXXXXXXXX.@@@O       ",
"      .@@@.XXXXXXXXXXXXXXXXXXXXXXXXXXXXXXXXXXXXXXXXX.@@@.       ",
"      .@@@.XXXXXXXXXXXXXXXXXXXXXXXXXXXXXXXXXXXXXXXXX.@@@.       ",
"      .@@@.XXXXXXXXXXXXXXXXXXXXXXXXXXXXXXXXXXXXXXXXX.@@@.       ",
"      .@@@.XXXXXXXXXXXXXXXXXXXXXXXXXXXXXXXXXXXXXXXXX.@@@.       ",
"      .@@@.XXXXXXXXXXXXXXXXXXXXXXXXXXXXXXXXXXXXXXXXX.@@@.       ",
"      .@@@.XXXXXXXXXXXXXXXXXXXXXXXXXXXXXXXXXXXXXXXXX.@@@.       ",
"      .@@@.XXXXXXXXXXXXXXXXXXXXXXXXXXXXXXXXXXXXXXXXX.@@@.       ",
"      .@@@.XXXXXXXXXXXXXXXXXXXXXXXXXXXXXXXXXXXXXXXXX.@@@.       ",
"      .@@@.XXXXXXXXXXXXXXXXXXXXXXXXXXXXXXXXXXXXXXXXX.@@@.       ",
"      .@@@.XXXXXXXXXXXXXXXXXXXXXXXXXXXXXXXXXXXoooXXX.@@@O       ",
"      .@@@.XXXXXXXXXXXXXXXXXXXXXXXXXXXXXXXXXXoXXXoXX.@@@O       ",
"      .@@@.XXXXXXXXXXXXXXXXXXXXXXXXXXXXXXXXXXoXXXoXX.@@@O       ",
"      .@@@.XXXXXXXXXXXXXXXXXXXXXXXXXXXXXXXXXXoXXXoXX.@@@O       ",
"      .@@@.XXXXXXXXXXXXXXXXXXXXXXXXXXXXXXXXXXXoooXXX.@@@O       ",
"      .@@@.XXXXXXXXXXXXXXXXXXXXXXXXXXXXXXXXXXXXXXXXX.@@@O       ",
"      .@@@.XXXXXXXXXXXXXXXXXXXXXXXXXXXXXXXXXXXXXXXXX.@@@O       ",
"      .@@@.XXXXXXXXXXXXXXXXXXXXXXXXXXXXXXXXXXXXXXXXX.@@@O       ",
"      .@@@.XXXXXXXXXXXXXXXXXXXXXXXXXXXXXXXXXXXXXXXXX.@@@O       ",
"      .@@@.XXXXXXXXXXXXXXXXXXXXXXXXXXXXXXXXXXXXXXXXX.@@@O       ",
"      .@@@.XXXXXXXXXXXXXXXXXXXXXXXXXXXXXXXXXXXXXXXXX.@@@.       ",
"      .@@@.XXXXXXXXXXXXXXXXXXXXXXXXXXXXXXXXXXXXXXXXX.@@@.       ",
"      .@@@.XXXXXXXXXXXXXXXXXXXXXXXXXXXXXXXXXXXXXXXXX.@@@.       ",
"      .@@@......XXXXXXXXXXXXXXXXXXXXXXXXXXXXXXXXXXXX.@@@.       ",
"      .@@@+++++.XXXXXXXXXXXXXXXXXXXXXXXXXXXXXXXXXXXX.@@@.       ",
"      .@@@+++++.XXXXXXXXXXXXXXXXXXXXXXXXXXXXXXXXXXXX.@@@.       ",
"      .@@@......XXXXXXXXXXXXXXXXXXXXXXXXXXXXXXXXXXXX.@@@.       ",
"      .@@@.XXXXXXXXXXXXXXXXXXXXXXXXXXXXXXXXXXXXXXXXX.@@@.       ",
"      .@@@.XXXXXXXXXXXXXXXXXXXXXXXXXXXXXXXXXXXXXXXXX.@@@.       "
};
