/* XPM */
static char *b804c7f733124560ab214e9de2f2b527WUsthrSORr6RSoKS[] = {
/* columns rows colors chars-per-pixel */
"64 64 10 1 ",
"  c None",
". c #0E071B",
"X c #131313",
"o c #1A1932",
"O c #BF6F4A",
"+ c #E69C69",
"@ c #FFEB57",
"# c #0098DC",
"$ c #92A1B9",
"% c white",
/* pixels */
"                                                                ",
"                                                                ",
"                                                                ",
"                                                                ",
"                                                                ",
"                                                                ",
"                                                                ",
"                                                                ",
"                                                                ",
"                                                                ",
"                                                                ",
"                                                                ",
"                                                                ",
"                             oXXXXX                             ",
"                           oo%%%%%%.oX                          ",
"                        Xoo%%%%%%%%%%%o                         ",
"                       X%%%$%%%@@@%%%%%o                        ",
"                      X%%%$%%%%%%%%%%#%o.                       ",
"                     X%%%%%%%%%%%%%%%%#%o.                      ",
"                    .%%%%%%%@%%#%%%%%%%%%%.                     ",
"                   X%%$%%%%@%%%#%%%%%%%%%%.                     ",
"                   X%%$%%%%%%%%%%%%%%$$%%%.                     ",
"                  X%%%$%%%%%%%%%%%%%%%%%%%%o                    ",
"                  X%%%%%%#%%%%%%%%%%%%%%%%%o                    ",
"                  X%%%%%#%%%%%%%@@@%%%%###%o                    ",
"                  X%%%%%%%%%%%%%%%%%%%%%%%%o                    ",
"                  X%%%%%%%%%%%%%%%%%%%%%%%%o                    ",
"                  .+OOO++++OOO+++OOO++++OOOo                    ",
"                  .++OOO++++OOO+++OOO+++OOOo                    ",
"                   .++OOO++++OOO+++OOO+++OO.                    ",
"                   .O++OOO++++OOO+++OOO+++O.                    ",
"                    .+++OOO++++OOO+++OOO+++.                    ",
"                    .O+++OOO++++OOO+++OOOO.                     ",
"                     .O+++OOO++++OOO++++O.                      ",
"                     .OO+++OOO++++OOO++++.                      ",
"                      .OO+++OOO++++OOO++.                       ",
"                      .OOO+++OOO++++OOO+.                       ",
"                       .OOO+++OOO++++OOO.                       ",
"                       .+OOO+++OOO++++O.                        ",
"                       .++OOO+++OOO++++.                        ",
"                        .++OOO+++OOO++.                         ",
"                         .++OOO+++OOO+.                         ",
"                         .+++OOO+++OO.                          ",
"                         .++++OOO+++O.                          ",
"                          .O+++OOO++.                           ",
"                          .OO+++OOO..                           ",
"                           .OO+++OO.                            ",
"                           .OOO+++O.                            ",
"                            .OOO++.                             ",
"                            .+OOO+.                             ",
"                             .+OO..                             ",
"                             .++O.                              ",
"                              .++.                              ",
"                              .O+.                              ",
"                               ..                               ",
"                                                                ",
"                                                                ",
"                                                                ",
"                                                                ",
"                                                                ",
"                                                                ",
"                                                                ",
"                                                                ",
"                                                                "
};
