/* XPM */
static char *d42643e8fb6a46dbc089efaa607adebbuBAx0kd6zujxecpz[] = {
/* columns rows colors chars-per-pixel */
"64 64 30 1 ",
"  c None",
". c #020409",
"X c #02060C",
"o c #03060D",
"O c #060110",
"+ c #000510",
"@ c #090217",
"# c #040A12",
"$ c #050914",
"% c #000818",
"& c #131313",
"* c #0E0421",
"= c #000C23",
"- c #0E0F2C",
"; c #011233",
": c #6D2412",
"> c #691B22",
", c #6D2231",
"< c #021B49",
"1 c #132243",
"2 c #032769",
"3 c #5B537D",
"4 c #61676D",
"5 c #9C341A",
"6 c #8F5765",
"7 c #A78769",
"8 c #78D7FF",
"9 c #8B949D",
"0 c #F0C297",
"q c #C7D4E1",
/* pixels */
"                                                                ",
"                                                                ",
"                                                                ",
"                                                                ",
"                                                                ",
"                                                                ",
"                                                                ",
"                                                                ",
"                                                                ",
"                                                                ",
"                                                                ",
"                             --                                 ",
"                             -3-                                ",
"                             -33-  ---                          ",
"                             -333-----                          ",
"                         -   -3333333---                        ",
"                         -----333333333-                        ",
"                         -3333333333333-                        ",
"                        --3333333333333--     &&&               ",
"           &&&&&      ----33333333333333-    &5&5&              ",
"          &&5&5&     --3-3333333333333333-  &55&5&              ",
"          &55&5&      -3>>>33355553353-33-  &&555&              ",
"          &5555&       ->>>>5555555555--3-   &&555&             ",
"          &55555&      ->>>>55555555555#--    &555&             ",
"          &&55555&     ->>>>55555555555#       o555&            ",
"            &5555&      -#>>55555555555#       &555o            ",
"            &&5555&      #>>55555555555#       &5555&           ",
"             &5555&&     #>>555555555##      &&55555o           ",
"              &555555&   #>>5555555##       &555555&            ",
"              &555555&&  &,,,::::::o########555555&             ",
"              &5555555&&&&###########112222255555&              ",
"               &&555555<<<;<<222222222222221555oo&              ",
"                &&55555<22<<<<2222222222221115oo                ",
"                 &&5555<;<;<2<<;<222222#1111ooo                 ",
"                   &&55<<==;<2<22222222####&&                   ",
"                    &&&$$2%;=;<<22222222#                       ",
"                         *2;;222222222<;#                       ",
"                         .;+<<<2222222=<*                       ",
"                         $;%222222222<=<*                       ",
"                         $;<<22222222;<%*                       ",
"                         $<=;22222222<+<*                       ",
"                         o;<<22222222;+;@                       ",
"                         o22<22222222%<2@                       ",
"                         $2222222222<<<<*                       ",
"                         $66600066666666*                       ",
"                         $66670066666666*                       ",
"                         $88888888888886*                       ",
"                         &88888888888888*                       ",
"                         &88888888888888*                       ",
"                        $8888888888888888*                      ",
"                        &888888****888888*                      ",
"                        &88888*   *8888888*                     ",
"                       &88888*     *8888888*                    ",
"                      &&88888*      *888888@                    ",
"                     *&888888*       *888888O                   ",
"                     *888888*         *88888*                   ",
"                     $88888*          *888888*                  ",
"                     $88888*           *88888*                  ",
"                     o88888*            *8888*                  ",
"                    $o99qqqq*          *qqqqqq*                 ",
"                   .494qqqqq*          *qqqqqq*                 ",
"                   o4qqqqqqq*          *qqqqqq*                 ",
"                    ********            ******                  ",
"                                                                "
};
