/* XPM */
static char *_2cdf9877ebf49259a0fc92be77e019csEbUAysTolPK1tae[] = {
/* columns rows colors chars-per-pixel */
"64 64 16 1 ",
"  c #78D7FF",
". c #032769",
"X c #9C341A",
"o c #131313",
"O c #5B537D",
"+ c #030811",
"@ c #0E0421",
"# c #C7D4E1",
"$ c #0B0F2C",
"% c #081D47",
"& c #8F5765",
"* c #F0C297",
"= c #6D2412",
"- c #A78769",
"; c white",
": c None",
/* pixels */
"::::::::::::::::::::::::::::::::::::::::::::::::::::::::::::::::",
"::::::::::::::::::::::::::::::::::::::::::::::::::::::::::::::::",
"::::::::::::::::::::::::::::::::::::::::::::::::::::::::::::::::",
"::::::::::::::::::::::::::::::::::::::::::::::::::::::::::::::::",
"::::::::::::::::::::::::::::::::::::::::::::::::::::::::::::::::",
"::::::::::::::::::::::::::::::::::::::::::::::::::::::::::::::::",
"::::::::::::::::::::::::::::::::::::::::::::::::::::::::::::::::",
"::::::::::::::::::::::::::::::::::::::::::::::::::::::::::::::::",
"::::::::::::::::::::::::::::::::::::::::::::::::::::::::::::::::",
"::::::::::::::::::::::::::::::::::::::::::::::::::::::::::::::::",
"::::::::::::::::::::::::::::::::::::::::::::::::::::::::::::::::",
"::::::::::::::::::::::::::::::::::::::::::::::::::::::::::::::::",
"::::::::::::::::::::::::::::::::::::::::::::::::::::::::::::::::",
"::::::::::::::::::::::::::$$$::::oo:::::::::::::::::::::::::::::",
"::::::::::::::::::::::::::$$$$$ooOo:::::::::::::::::::::::::::::",
"::::::::::::::::::::::::$$$OOOOOOOo:::::::::::::::::::::::::::::",
"::::::::::::::::::::::::$OOOOOOOOOo:::::::::::::::::::::::::::::",
"::::::::::::::::::::::::$OOOOOOOOOo:::::::::::::::::::::::::::::",
":::::::::::::::ooo:::::$$OOOOOOOOOo:::::::::::::::::::::::::::::",
"::::::::::::::oXoXo::::$OOOOOOOOOOOo::::::::::::::::::::::::::::",
"::::::::::::::oXoXXo::$OOOOOOOOOOOOo::::::::::::::::::::::::::::",
"::::::::::::::oXXXoo::$OO$OXOOXXXXOo::::::::::::::::::::::::::::",
":::::::::::::oXXXoo:::$O$$XXXXXXXXXo::::::::::::::::::::::::::::",
":::::::::::::oXXXo::::$$+XooXXXXXXXo::::::::::::::::::::::::::::",
"::::::::::::oXXX+:::::::+Xo;XXXXXXXo::::::::::::::::::::::::::::",
"::::::::::::+XXXo::::#::+XXXXXXXXXo:::::::::::::::::::::::::::::",
":::::::::::oXXXXo:::::::+XXXXXXXXXo:::::::::::::::::::::::::::::",
":::::::::::+XXXXXoo::::::++XXXXXXXo:::::::::::::::::::::::::::::",
"::::::::::::oXXXXXXo:::::::++XXXXXo:::::::::::::::::::::::::::::",
":::::::::::::oXXXXXX+++++++++=====o:::::::::::::::::::::::::::::",
"::::::::::::::oXXXXX.....%%+++++++o:::::::::::::::::::::::::::::",
"::::::::::::::o++XXX%.............o:::::::::::::::::::::::::::::",
"::::::::::::::::++X%%%............o:::::::::::::::::::::::::::::",
":::::::::::::::::+++%%%%+......%$%o.::::::::::::::::::::::::::::",
":::::::::::::::::::oo++++........%.o::::::::::::::::::::::::::::",
":::::::::::::::::::::::+........%%$o::::::::::::::::::::::::::::",
":::::::::::::::::::::::+$%.........o::::::::::::::::::::::::::::",
":::::::::::::::::::::::@%$.......%%o::::::::::::::::::::::::::::",
":::::::::::::::::::::::@%$%........o::::::::::::::::::::::::::::",
":::::::::::::::::::::::@+%$........o::::::::::::::::::::::::::::",
":::::::::::::::::::::::@%+%........o::::::::::::::::::::::::::::",
":::::::::::::::::::::::+$+$........o::::::::::::::::::::::::::::",
":::::::::::::::::::::::+.%+........o::::::::::::::::::::::::::::",
":::::::::::::::::::::::@%%%%.......o::::::::::::::::::::::::::::",
":::::::::::::::::::::::@&&&&&&&&***o::::::::::::::::::::::::::::",
":::::::::::::::::::::::@&&&&&&&&**-o::::::::::::::::::::::::::::",
":::::::::::::::::::::::@&          o::::::::::::::::::::::::::::",
":::::::::::::::::::::::@           o::::::::::::::::::::::::::::",
":::::::::::::::::::::::@          oo::::::::::::::::::::::::::::",
"::::::::::::::::::::::@           oo::::::::::::::::::::::::::::",
"::::::::::::::::::::::@           o:::::::::::::::::::::::::::::",
":::::::::::::::::::::@      oo    o:::::::::::::::::::::::::::::",
"::::::::::::::::::::@      o::o   o:::::::::::::::::::::::::::::",
"::::::::::::::::::::+      @::o    o::::::::::::::::::::::::::::",
":::::::::::::::::::+      @:::o     o:::::::::::::::::::::::::::",
":::::::::::::::::::@     @:::::oo    o::::::::::::::::::::::::::",
"::::::::::::::::::@      @::::::o    o::::::::::::::::::::::::::",
"::::::::::::::::::@     @::::::::o    o:::::::::::::::::::::::::",
"::::::::::::::::::@    @:::::::::o    oo::::::::::::::::::::::::",
":::::::::::::::::@######@:::::::::o   ##o:::::::::::::::::::::::",
":::::::::::::::::@######@::::::::o#######o::::::::::::::::::::::",
":::::::::::::::::@######@::::::::o#######o::::::::::::::::::::::",
"::::::::::::::::::@@@@@@::::::::::oo@@@@@:::::::::::::::::::::::",
"::::::::::::::::::::::::::::::::::::::::::::::::::::::::::::::::"
};
