/* XPM */
static char *_5d5e205c6f04edaf02a0db40cce0314vGzKFis7l8qJqxTu[] = {
/* columns rows colors chars-per-pixel */
"64 64 25 1 ",
"  c None",
". c #02060C",
"X c #060110",
"o c #000510",
"O c #090217",
"+ c #040A12",
"@ c #000818",
"# c #131313",
"$ c #1B1B1B",
"% c #0E0421",
"& c #000C23",
"* c #0E0F2C",
"= c #011233",
"- c #6D2412",
"; c #021B49",
": c #132243",
"> c #032769",
", c #5B537D",
"< c #9C341A",
"1 c #8F5765",
"2 c #A78769",
"3 c #78D7FF",
"4 c #F0C297",
"5 c #C7D4E1",
"6 c white",
/* pixels */
"                                                                ",
"                                                                ",
"                                                                ",
"                                                                ",
"                                                                ",
"                                                                ",
"                                                                ",
"                                                                ",
"                                                                ",
"                                                                ",
"                                                                ",
"                                                                ",
"                                                                ",
"                             $$    ***                          ",
"                             #,$$*****                          ",
"                             #,,,,,,,***                        ",
"                             #,,,,,,,,,*                        ",
"                             #,,,,,,,,,*                        ",
"                             #,,,,,,,,,**     ###               ",
"                            #,,,,,,,,,,,*    #<#<#              ",
"                            #,,,,,,,,,,,,*  #<<#<#              ",
"                            #,<<<<,,<,*,,*  ##<<<#              ",
"                            #<<<<<<<<<**,*   ##<<<#             ",
"                            #<<<<<<<##<+**    #<<<#             ",
"                            #<<<<<<<6#<+       .<<<#            ",
"                             #<<<<<<<<<+  5    #<<<.            ",
"                             #<<<<<<<<<+       #<<<<#           ",
"                             #<<<<<<<++      ##<<<<<.           ",
"                             #<<<<<++       #<<<<<<#            ",
"                             #-----.++++++++<<<<<<#             ",
"                             #+++++++::>>>>><<<<<#              ",
"                             #>>>>>>>>>>>>>:<<<..#              ",
"                             #>>>>>>>>>>>>:::<..                ",
"                            >#;=;>>>>>>+::::...                 ",
"                            #>;>>>>>>>>++++##                   ",
"                            #=;;>>>>>>>>+                       ",
"                            #>>>>>>>>>;=+                       ",
"                            #;;>>>>>>>&;%                       ",
"                            #>>>>>>>>;&;%                       ",
"                            #>>>>>>>>=;@%                       ",
"                            #>>>>>>>>;o;%                       ",
"                            #>>>>>>>>=o=O                       ",
"                            #>>>>>>>>@;>O                       ",
"                            #>>>>>>>;;;;%                       ",
"                            #44411111111%                       ",
"                            #24411111111%                       ",
"                            #33333333331%                       ",
"                            #33333333333%                       ",
"                            ##3333333333%                       ",
"                            ##33333333333%                      ",
"                             #33333333333%                      ",
"                             #3333##333333%                     ",
"                             #333#  #333333%                    ",
"                            #3333#  %333333O                    ",
"                           #33333#   %333333X                   ",
"                          #3333##     %33333%                   ",
"                          #3333#      %333333%                  ",
"                         #3333#        %33333%                  ",
"                        ##3333#         %3333%                  ",
"                       #55333#         %555555%                 ",
"                      #5555555#        %555555%                 ",
"                      #5555555#        %555555%                 ",
"                       %%%%%##          %%%%%%                  ",
"                                                                "
};
